<?xml version="1.0" encoding="iso-8859-1"?>
<!-- Generator: Adobe Illustrator 19.0.0, SVG Export Plug-In . SVG Version: 6.00 Build 0)  -->
<svg version="1.1" id="Capa_1" xmlns="http://www.w3.org/2000/svg" xmlns:xlink="http://www.w3.org/1999/xlink" x="0px" y="0px"
	 viewBox="0 0 512 512" style="enable-background:new 0 0 512 512;" xml:space="preserve">
<path style="fill:#3B3B3B;" d="M256,0l-61.811,256L256,512c141.385,0,256-114.615,256-256S397.385,0,256,0z"/>
<path style="fill:#00786B;" d="M0,256c0,141.385,114.615,256,256,256V0C114.615,0,0,114.615,0,256z"/>
<path style="fill:#06F5DD;" d="M400.43,83.362l-50.974,53.627l-23.083-94.849C353.756,51.146,378.817,65.261,400.43,83.362z"/>
<path style="fill:#00D4BE;" d="M400.43,83.362c49.302,41.291,80.664,103.298,80.664,172.638l-128,30.905l6.663-180.822
	C374.056,99.737,387.656,92.108,400.43,83.362z"/>
<path style="fill:#00B3A0;" d="M384,256h97.095c0,69.339-31.362,131.347-80.664,172.638l-71.578-12.42L384,256z"/>
<path style="fill:#008F80;" d="M359.758,405.916c14.298,6.347,27.898,13.975,40.673,22.722
	c-21.613,18.101-46.674,32.216-74.058,41.222L359.758,405.916z"/>
<path style="fill:#00D4BE;" d="M384,256c0,55.992-8.995,107.777-24.242,149.916L256,384l-30.905-158.905L384,256z"/>
<path style="fill:#00B3A0;" d="M359.758,405.916c-9.094,25.134-20.416,46.835-33.385,63.943
	c-22.142,7.281-45.794,11.235-70.373,11.235l-30.905-48.547L256,384C292.937,384,328.041,391.837,359.758,405.916z"/>
<path style="fill:#06F5DD;" d="M359.758,106.084l-134.663-8.989L256,256h128C384,200.008,375.005,148.223,359.758,106.084z"/>
<path style="fill:#8CFFF3;" d="M256,128V30.905c24.579,0,48.231,3.954,70.373,11.235c12.969,17.108,24.29,38.809,33.385,63.943
	C328.041,120.163,292.937,128,256,128z"/>
<path style="fill:#FFFFFF;" d="M111.57,83.362l50.974,53.627l23.083-94.849C158.244,51.146,133.183,65.261,111.57,83.362z"/>
<path style="fill:#DBFFF8;" d="M111.57,83.362C62.267,124.653,30.905,186.661,30.905,256l128,30.905l-6.663-180.822
	C137.944,99.737,124.344,92.108,111.57,83.362z"/>
<path style="fill:#8CFFF3;" d="M128,256H30.905c0,69.339,31.362,131.347,80.664,172.638l71.578-12.42L128,256z"/>
<g>
	<path style="fill:#06F5DD;" d="M152.242,405.916c-14.298,6.347-27.898,13.975-40.673,22.722
		c21.613,18.101,46.674,32.216,74.058,41.222L152.242,405.916z"/>
	<path style="fill:#06F5DD;" d="M192,235.396L128,256c0,55.992,8.995,107.777,24.242,149.916L256,384V256L192,235.396z"/>
</g>
<path style="fill:#00D4BE;" d="M152.242,405.916c9.094,25.134,20.416,46.835,33.385,63.943
	c22.142,7.281,45.794,11.235,70.373,11.235V384C219.063,384,183.959,391.837,152.242,405.916z"/>
<path style="fill:#8CFFF3;" d="M152.242,106.084C136.995,148.223,128,200.007,128,256h128V128L152.242,106.084z"/>
<path style="fill:#DBFFF8;" d="M256,128V30.905c-24.579,0-48.231,3.954-70.373,11.235c-12.969,17.108-24.29,38.809-33.385,63.943
	C183.959,120.163,219.063,128,256,128z"/>
<path style="fill:#FFFFFF;" d="M420.629,91.371C376.655,47.397,318.189,23.179,256,23.179S135.345,47.397,91.371,91.371
	S23.179,193.812,23.179,256s24.217,120.655,68.192,164.629S193.811,488.821,256,488.821s120.655-24.217,164.629-68.192
	S488.821,318.188,488.821,256S464.603,135.345,420.629,91.371z M473.216,248.274h-81.55c-0.738-49.977-8.624-97.654-22.309-138.111
	c10.444-4.986,20.593-10.679,30.389-17.064C443.061,131.365,471.049,186.587,473.216,248.274z M321.648,463.227
	c-18.378,5.835-37.807,9.282-57.922,9.989v-81.362c29.868,0.914,58.983,7.123,86.237,18.287
	C342.076,430.433,332.567,448.388,321.648,463.227z M364.042,416.423c7.903,3.83,15.62,8.099,23.129,12.787
	c-12.629,9.587-26.33,17.829-40.896,24.506C352.846,442.376,358.783,429.873,364.042,416.423z M190.352,463.227
	c-10.919-14.839-20.427-32.794-28.317-53.086c27.254-11.164,56.37-17.373,86.237-18.287v81.362
	C228.158,472.51,208.73,469.063,190.352,463.227z M165.725,453.714c-14.565-6.677-28.267-14.918-40.896-24.506
	c7.509-4.687,15.226-8.955,23.129-12.787C153.217,429.873,159.154,442.376,165.725,453.714z M190.352,48.773
	c18.378-5.835,37.807-9.282,57.922-9.989v81.362c-29.868-0.914-58.983-7.123-86.237-18.287
	C169.924,81.567,179.433,63.612,190.352,48.773z M147.958,95.577c-7.903-3.83-15.62-8.099-23.129-12.787
	c12.629-9.587,26.33-17.829,40.896-24.506C159.154,69.624,153.217,82.127,147.958,95.577z M321.648,48.773
	c10.919,14.839,20.427,32.794,28.317,53.086c-27.254,11.164-56.369,17.373-86.237,18.287V38.784
	C283.842,39.49,303.27,42.937,321.648,48.773z M346.275,58.286c14.565,6.677,28.267,14.918,40.896,24.505
	c-7.509,4.687-15.226,8.955-23.129,12.787C358.783,82.127,352.846,69.624,346.275,58.286z M248.274,135.604v112.67H135.786
	c0.722-47.853,8.139-93.355,20.995-131.869C185.71,128.171,216.597,134.691,248.274,135.604z M248.274,263.726v112.67
	c-31.677,0.913-62.564,7.433-91.492,19.199c-12.857-38.514-20.274-84.016-20.996-131.869H248.274z M263.726,376.396v-112.67h112.488
	c-0.722,47.853-8.139,93.355-20.995,131.869C326.29,383.829,295.403,377.309,263.726,376.396z M263.726,248.274v-112.67
	c31.677-0.913,62.564-7.433,91.492-19.199c12.857,38.514,20.274,84.016,20.995,131.869H263.726z M112.254,93.098
	c9.796,6.385,19.945,12.078,30.389,17.064c-13.685,40.457-21.571,88.134-22.309,138.111h-81.55
	C40.951,186.587,68.939,131.365,112.254,93.098z M38.784,263.726h81.55c0.738,49.977,8.624,97.654,22.309,138.111
	c-10.444,4.986-20.593,10.679-30.389,17.064C68.939,380.635,40.951,325.413,38.784,263.726z M399.746,418.901
	c-9.796-6.385-19.945-12.078-30.389-17.064c13.685-40.457,21.57-88.134,22.309-138.111h81.55
	C471.049,325.413,443.061,380.635,399.746,418.901z"/>
<g>
</g>
<g>
</g>
<g>
</g>
<g>
</g>
<g>
</g>
<g>
</g>
<g>
</g>
<g>
</g>
<g>
</g>
<g>
</g>
<g>
</g>
<g>
</g>
<g>
</g>
<g>
</g>
<g>
</g>
</svg>
